<?xml version="1.0" encoding="utf-8"?>
<!-- Generator: Adobe Illustrator 16.0.0, SVG Export Plug-In . SVG Version: 6.00 Build 0)  -->
<!DOCTYPE svg PUBLIC "-//W3C//DTD SVG 1.1//EN" "http://www.w3.org/Graphics/SVG/1.1/DTD/svg11.dtd">
<svg version="1.1" xmlns="http://www.w3.org/2000/svg" xmlns:xlink="http://www.w3.org/1999/xlink" x="0px" y="0px" width="100px"
	 height="100px" viewBox="0 0 100 100" enable-background="new 0 0 100 100" xml:space="preserve">
<g id="Layer_1" display="none">
	<g display="inline">
		<path fill-rule="evenodd" clip-rule="evenodd" fill="#FFFFFF" d="M39,59.874c1.168,3.827,2.228,7.577,3.458,11.268
			c1.463,4.385,3.635,8.426,6.359,12.164c0.974,1.336,1.308,1.336,2.289-0.008c4.901-6.699,7.546-14.343,9.334-22.341
			c0.045-0.191,0.078-0.385,0.124-0.575c0.038-0.158,0.085-0.313,0.129-0.47c6.585,1.193,16.251,5.995,18.626,15.404
			c0.46,1.815,0.439,3.755,0.641,5.636c0.071,0.656-0.287,0.979-0.836,1.269c-3.705,1.938-7.673,3.034-11.762,3.735
			c-8.398,1.435-16.861,1.435-25.333,1.024c-6.017-0.289-11.953-1.076-17.646-3.175c-0.982-0.363-1.905-0.896-2.898-1.219
			c-1.453-0.469-1.66-1.509-1.601-2.826c0.269-5.899,2.754-10.658,7.329-14.341C30.729,62.589,34.771,60.862,39,59.874z"/>
		<path fill-rule="evenodd" clip-rule="evenodd" fill="#FFFFFF" d="M36.943,41.876c0.044-4.243,0.943-8.433,3.74-11.999
			c2.34-2.986,5.371-4.863,9.273-4.781c4.53,0.095,7.914,2.304,10.293,6.093c4.198,6.687,3.455,18.152-1.55,24.278
			c-5.3,6.484-14.086,5.79-18.575-1.477C37.87,50.342,36.966,46.321,36.943,41.876z"/>
		<path fill-rule="evenodd" clip-rule="evenodd" fill="#FFFFFF" d="M43.819,24.2c-3.709,2.048-6.271,5.023-7.677,8.95
			c-2.024,5.652-2.149,11.354-0.327,17.084c0.04,0.125,0.082,0.249,0.108,0.379c0.012,0.06-0.014,0.126-0.034,0.293
			c-2.043,0.74-4.127,0.64-6.207,0.038c-2.776-0.808-4.95-2.517-6.4-4.948c-4.577-7.673-4.979-15.581-0.592-23.439
			c2.027-3.633,5.346-5.779,9.619-5.955C37.199,16.399,41.807,19.497,43.819,24.2z"/>
		<path fill-rule="evenodd" clip-rule="evenodd" fill="#FFFFFF" d="M64.093,50.929c0.409-2.315,0.987-4.487,1.149-6.691
			c0.469-6.4-0.652-12.393-5.31-17.216c-1.082-1.118-2.439-1.968-3.736-2.995c1.981-3.91,4.985-6.812,9.564-7.343
			c4.958-0.576,8.814,1.623,11.507,5.744c2.486,3.803,3.122,8.094,2.851,12.548c-0.282,4.63-1.555,8.933-4.654,12.495
			c-2.945,3.382-6.672,4.608-11.084,3.58C64.259,51.024,64.148,50.953,64.093,50.929z"/>
		<path fill-rule="evenodd" clip-rule="evenodd" fill="#FFFFFF" d="M21.777,51.371c1.237,3.994,2.42,7.869,3.654,11.729
			c0.191,0.601-0.114,0.823-0.466,1.13c-3.709,3.233-6.141,7.218-7.072,12.077c-0.08,0.418-0.14,0.837-0.218,1.256
			c-0.011,0.056-0.075,0.103-0.173,0.231c-4.908-0.698-9.743-1.788-14.151-4.27c-0.361-0.203-0.617-0.904-0.623-1.379
			c-0.083-5.163,1.64-9.65,5.248-13.364C11.827,54.82,16.63,52.625,21.777,51.371z"/>
		<path fill-rule="evenodd" clip-rule="evenodd" fill="#FFFFFF" d="M82.315,77.814c-0.176-0.871-0.3-1.646-0.489-2.404
			c-1.099-4.429-3.371-8.158-6.787-11.178c-0.518-0.455-0.629-0.816-0.409-1.501c1.196-3.735,2.319-7.495,3.548-11.512
			c2.107,0.792,4.462,1.497,6.654,2.541c5.242,2.5,9.34,6.188,11.35,11.822c0.768,2.149,1.074,4.385,1.043,6.671
			c-0.011,0.738-0.298,1.172-0.976,1.521C91.902,76.01,87.238,77.107,82.315,77.814z"/>
	</g>
</g>
<g id="Layer_2" display="none">
	<g display="inline">
		<path fill-rule="evenodd" clip-rule="evenodd" fill="#FFFFFF" d="M33.126,56.433c1.804,5.911,3.442,11.703,5.344,17.407
			c2.259,6.772,5.615,13.013,9.824,18.79c1.504,2.064,2.018,2.062,3.535-0.009c7.575-10.352,11.658-22.159,14.422-34.519
			c0.066-0.295,0.12-0.595,0.191-0.89c0.058-0.243,0.132-0.484,0.199-0.722c10.173,1.844,25.104,9.26,28.776,23.795
			c0.709,2.808,0.677,5.802,0.988,8.71c0.108,1.012-0.443,1.51-1.295,1.955c-5.72,2.998-11.849,4.692-18.169,5.772
			c-12.974,2.218-26.046,2.218-39.136,1.585c-9.295-0.449-18.466-1.661-27.261-4.908c-1.518-0.56-2.943-1.383-4.478-1.879
			c-2.244-0.726-2.565-2.336-2.473-4.368C4.01,78.04,7.85,70.689,14.917,64.998C20.349,60.625,26.59,57.956,33.126,56.433z"/>
		<path fill-rule="evenodd" clip-rule="evenodd" fill="#FFFFFF" d="M29.949,28.624c0.068-6.551,1.457-13.026,5.776-18.536
			c3.617-4.613,8.297-7.513,14.328-7.386c6.995,0.147,12.225,3.561,15.9,9.414c6.485,10.33,5.339,28.042-2.394,37.506
			c-8.186,10.018-21.76,8.947-28.696-2.28C31.38,41.702,29.983,35.494,29.949,28.624z"/>
	</g>
</g>
<g id="Layer_3" display="none">
	<g display="inline">
		<path fill="#FFFFFF" d="M65.617,78.107c0-6.843,3.774-12.756,9.301-15.968c-3.457-1.106-7.194-1.983-11.107-2.597
			c8.423-4.668,14.126-13.635,14.126-23.936c0-15.129-12.266-27.375-27.375-27.375c-15.126,0-27.375,12.246-27.375,27.375
			c0,10.3,5.703,19.268,14.108,23.936c-20.67,3.229-35.85,13.792-35.85,26.34h65.945C66.284,83.513,65.617,80.898,65.617,78.107
			L65.617,78.107z M65.617,78.107"/>
		<path fill="#FFFFFF" d="M84.113,63.666c-7.967,0-14.425,6.458-14.425,14.441c0,7.969,6.458,14.426,14.425,14.426
			s14.441-6.457,14.441-14.426C98.555,70.124,92.08,63.666,84.113,63.666L84.113,63.666z M93.537,80.671h-6.862v6.86h-5.123v-6.86
			h-6.862v-5.143h6.862v-6.86h5.123v6.86h6.862V80.671z M93.537,80.671"/>
	</g>
</g>
<g id="Layer_4" display="none">
	<path display="inline" fill="#FFFFFF" d="M28.906,68.787l2.359-2.359h17.241l-11-19.872l-8.133,1.647
		c-2.137,0.433-3.839,2.042-4.4,4.146L15.315,83.87c-0.455,1.712-0.085,3.543,0.994,4.949c1.09,1.407,2.761,2.232,4.537,2.232h8.06
		V68.787z M28.906,68.787"/>
	<path display="inline" fill="#FFFFFF" d="M84.723,83.87L75.064,52.35c-0.56-2.126-2.294-3.743-4.463-4.156l-8.113-1.533
		L51.53,66.428h18.552l2.35,2.359v22.265H79.2c1.767,0,3.449-0.825,4.526-2.232C84.807,87.413,85.177,85.582,84.723,83.87
		L84.723,83.87z M84.723,83.87"/>
	<path display="inline" fill="#FFFFFF" d="M33.624,91.052h-0.656v0.011h34.101v-0.011h0.655V71.145H33.624V91.052z M33.624,91.052"
		/>
	<rect x="24.21" y="93.199" display="inline" fill="#FFFFFF" width="51.625" height="4.262"/>
	<path display="inline" fill="#FFFFFF" d="M31.635,32.645c0.096,0.182,0.211,0.466,0.338,0.76c0.497,1.208,0.91,2.107,1.471,2.635
		c2.623,8.546,9.381,14.471,16.563,14.438c7.15-0.021,13.824-5.987,16.353-14.554c0.551-0.538,0.94-1.427,1.428-2.623
		c0.127-0.307,0.243-0.591,0.328-0.783c0.973-2,0.634-4.167-0.72-5.224v-0.203C67.365,16.493,65.979,5.177,49.85,5.229
		C33.603,5.283,32.281,16.125,32.313,27.208c0,0.075,0,0.138,0,0.202C30.979,28.478,30.662,30.647,31.635,32.645L31.635,32.645z
		 M33.91,29.227l0.042-0.018c0.274-0.099,0.486-0.288,0.613-0.52l2.824,0.434c0.264,0.031,0.528-0.106,0.634-0.359l1.777-4.105
		c2.021,0.488,9.636,2.199,15.611,2.181c1.849,0,3.386-0.181,4.57-0.53l1.132,2.718c0.095,0.233,0.316,0.382,0.55,0.372
		c0.053,0,0.106,0,0.159-0.022l3.278-0.92c0.126,0.298,0.37,0.53,0.677,0.646l0.054,0.008c0.486,0.245,0.646,1.314,0.125,2.37
		c-0.115,0.255-0.253,0.571-0.39,0.921c-0.201,0.499-0.604,1.502-0.857,1.778c-0.275,0.147-0.476,0.413-0.561,0.718
		c-2.137,7.744-7.965,13.167-14.163,13.19c-6.219,0.021-12.132-5.362-14.364-13.096c-0.095-0.306-0.297-0.561-0.571-0.717
		c-0.243-0.266-0.676-1.281-0.878-1.78c-0.137-0.338-0.274-0.654-0.401-0.907C33.265,30.53,33.423,29.472,33.91,29.227L33.91,29.227
		z M33.91,29.227"/>
</g>
<g id="Layer_5" display="none">
	<path display="inline" fill-rule="evenodd" clip-rule="evenodd" fill="#FFFFFF" d="M86.911,82.937
		c-0.015-0.007-0.029-0.021-0.044-0.021c-1.285,0.01-2.154-0.745-3-1.583c-5.412-5.366-10.836-10.724-16.255-16.082
		c-0.034-0.035-0.062-0.077-0.118-0.15c0.186-0.222,0.37-0.453,0.567-0.674c0.24-0.264,0.291-0.513,0.006-0.777
		c-0.608-0.57-1.212-1.146-1.859-1.756c-0.591,0.428-1.245,0.916-1.911,1.383c-4.856,3.391-10.263,4.774-16.148,4.446
		c-3.461-0.191-6.793-0.93-9.859-2.562c-7.405-3.944-12.113-10-13.646-18.281c-2.555-13.798,6.396-27.018,20.186-29.599
		c9.174-1.718,17.149,0.906,23.642,7.713c3.481,3.648,5.577,8.029,6.423,12.959c0.324,1.908,0.249,3.897,0.229,5.848
		c-0.05,5.264-2.068,9.835-5.097,14.027c-0.216,0.298-0.435,0.594-0.65,0.892c-0.019,0.024-0.021,0.063-0.03,0.094
		c0.721,0.692,1.442,1.385,2.209,2.122c0.246-0.228,0.567-0.526,0.893-0.824c0.069,0.039,0.118,0.055,0.15,0.087
		c5.598,5.677,11.157,11.394,16.816,17.009c1.537,1.524,0.889,4.838-1.431,5.511c-0.318,0.093-0.646,0.146-0.971,0.219
		C86.978,82.937,86.945,82.937,86.911,82.937z M49.742,20.97c-11.19,0.083-21.132,8.979-21.292,21.047
		c-0.157,11.903,9.285,21.583,21.215,21.628c11.563,0.044,21.095-9.263,21.362-20.886C71.279,31.922,62.803,21.192,49.742,20.97z"/>
	<path display="inline" fill-rule="evenodd" clip-rule="evenodd" fill="#FFFFFF" d="M0.852,68.394
		c0.134-1.022,0.229-2.054,0.411-3.067c0.351-1.953,1.311-3.454,3.2-4.306c2.539-1.146,5.045-2.36,7.653-3.585
		c1.229,3.779,2.471,7.6,3.713,11.421c0.053-0.001,0.106-0.001,0.159-0.003c0.267-0.727,0.479-1.479,0.815-2.175
		c0.537-1.108,0.555-2.108-0.19-3.156c-0.313-0.438-0.443-1.04-0.553-1.59c-0.161-0.805,0.243-1.523,1.038-1.698
		c0.684-0.15,1.432-0.203,2.12-0.098c1.113,0.17,1.669,1.067,1.326,2.155c-0.257,0.813-0.745,1.555-1.095,2.343
		c-0.096,0.214-0.152,0.513-0.082,0.723c0.391,1.168,0.826,2.32,1.247,3.479c0.063,0.008,0.125,0.014,0.188,0.021
		c1.22-3.804,2.44-7.607,3.688-11.496c0.454,0.235,0.913,0.37,1.226,0.66c0.705,0.657,1.363,1.37,1.984,2.106
		c0.153,0.182,0.191,0.578,0.111,0.819c-0.83,2.486-1.103,5.05-1.12,7.651c-0.007,1.171-0.038,2.34-0.065,3.51
		c-0.007,0.265-0.054,0.531-0.07,0.798c-0.02,0.345-0.165,0.525-0.536,0.472c-0.131-0.018-0.268-0.003-0.401-0.003
		c-8.039,0-16.079,0-24.117,0.002c-0.216,0-0.433,0.021-0.649,0.031C0.852,71.736,0.852,70.064,0.852,68.394z"/>
	<path display="inline" fill-rule="evenodd" clip-rule="evenodd" fill="#FFFFFF" d="M99.148,73.608
		c-0.199-0.014-0.396-0.04-0.597-0.04c-2.757-0.004-5.514,0.006-8.271-0.018c-0.266-0.001-0.594-0.13-0.778-0.314
		c-1.584-1.581-3.143-3.189-4.709-4.791c-0.191-0.195-0.318-0.376-0.212-0.701c1.081-3.313,2.144-6.634,3.212-9.951
		c0.035-0.108,0.093-0.21,0.153-0.349c1.158,0.56,2.291,1.12,3.435,1.656c1.161,0.547,2.313,1.12,3.507,1.596
		c2.387,0.95,3.62,2.741,3.956,5.223c0.113,0.855,0.202,1.716,0.304,2.574C99.148,70.199,99.148,71.903,99.148,73.608z"/>
	<path display="inline" fill-rule="evenodd" clip-rule="evenodd" fill="#FFFFFF" d="M90.751,41.517
		c-0.081,0.759-0.203,1.702-0.267,2.65c-0.021,0.323,0.11,0.656,0.18,0.982c0.046,0.227,0.147,0.447,0.159,0.675
		c0.075,1.433-0.255,2.785-0.93,4.045c-0.214,0.399-0.42,0.849-0.993,0.896c-0.09,0.006-0.194,0.211-0.243,0.344
		c-0.122,0.345-0.224,0.698-0.318,1.052c-0.44,1.599-1.313,2.937-2.598,3.959c-2.019,1.604-4.298,1.756-6.675,0.96
		c-1.165-0.39-2.105-1.134-2.939-2.029c-0.339-0.367-0.455-0.741-0.308-1.227c0.399-1.289,0.785-2.584,1.164-3.881
		c1.248-4.285,1.31-8.622,0.565-12.994c-0.104-0.608-0.18-1.222-0.284-1.83c-0.055-0.341,0.055-0.57,0.354-0.748
		c1.086-0.648,2.209-1.109,3.507-1.219c2.542-0.217,4.703,0.504,6.507,2.321c0.327,0.329,0.718,0.603,1.112,0.851
		c1.109,0.705,1.691,1.733,1.861,3.001C90.692,39.983,90.695,40.655,90.751,41.517z"/>
	<path display="inline" fill-rule="evenodd" clip-rule="evenodd" fill="#FFFFFF" d="M18.781,33.157
		c1.124,0.012,2.232,0.071,3.264,0.612c0.434,0.227,0.541,0.469,0.422,0.954c-1.463,5.987-1.351,11.904,0.846,17.721
		c0.2,0.531,0.429,1.056,0.566,1.602c0.06,0.235,0.007,0.589-0.139,0.774c-3.5,4.454-9.585,2.789-11.397-0.429
		c-0.61-1.08-1.126-2.187-1.432-3.398c-0.111-0.437-0.52-0.792-0.696-1.224c-0.403-0.982-0.804-1.975-1.09-2.994
		c-0.147-0.525-0.075-1.12-0.042-1.681c0.011-0.181,0.181-0.462,0.335-0.508c0.547-0.168,0.484-0.546,0.437-0.958
		c-0.075-0.661-0.204-1.327-0.184-1.987c0.071-2.36,1.066-4.305,2.784-5.9c1.076-1.001,2.275-1.837,3.669-2.289
		c0.838-0.271,1.754-0.302,2.635-0.44C18.768,33.061,18.774,33.108,18.781,33.157z"/>
	<path display="inline" fill-rule="evenodd" clip-rule="evenodd" fill="#FFFFFF" d="M64.85,66.253
		c1.77,1.841,3.533,3.667,5.288,5.503c0.452,0.472,0.735,1.027,0.651,1.76c-13.833,0-27.675,0-41.609,0
		c0.022-3.616-0.078-7.251,0.797-10.938c4.762,4.498,10.3,7.214,16.772,7.851C53.204,71.063,59.229,69.72,64.85,66.253z"/>
	<path display="inline" fill-rule="evenodd" clip-rule="evenodd" fill="#FFFFFF" d="M82.903,66.75
		c-1.046-1.178-2.135-2.322-3.116-3.552c-0.307-0.382-0.391-0.987-0.452-1.506c-0.081-0.678,0.794-1.589,1.515-1.604
		c0.648-0.013,1.303,0.029,1.946,0.113c0.651,0.084,1.135,0.631,1.077,1.351c-0.049,0.647-0.272,1.289-0.469,1.916
		c-0.093,0.295-0.284,0.567-0.461,0.828c-0.298,0.438-0.333,0.886-0.15,1.375c0.115,0.311,0.194,0.632,0.289,0.947
		C83.024,66.662,82.964,66.705,82.903,66.75z"/>
	<path display="inline" fill-rule="evenodd" clip-rule="evenodd" fill="#FFFFFF" d="M60.828,35.303
		c-0.11,1.062-0.213,2.175-0.345,3.285c-0.057,0.479,0.058,0.893,0.205,1.351c0.194,0.613,0.281,1.311,0.21,1.95
		c-0.144,1.299-0.549,2.545-1.191,3.691c-0.24,0.427-0.472,0.893-1.092,0.916c-0.11,0.004-0.255,0.24-0.307,0.396
		c-0.24,0.692-0.425,1.406-0.684,2.091c-1.092,2.871-3.077,4.762-6.113,5.447c-3.1,0.7-6.668-0.77-8.495-3.47
		c-0.822-1.215-1.414-2.53-1.738-3.964c-0.124-0.548-0.303-1.055-0.778-1.414c-0.128-0.095-0.222-0.252-0.299-0.396
		c-0.806-1.51-1.268-3.119-1.329-4.831c-0.022-0.643,0.164-1.179,0.872-1.411c0.125-0.041,0.276-0.338,0.243-0.474
		c-0.927-3.7,0.151-6.823,2.753-9.479c1.479-1.51,3.187-2.748,5.277-3.222c3.384-0.767,6.419-0.054,8.939,2.452
		c0.354,0.35,0.724,0.721,1.155,0.949c1.575,0.833,2.238,2.232,2.505,3.882C60.733,33.774,60.755,34.512,60.828,35.303z"/>
	<path display="inline" fill-rule="evenodd" clip-rule="evenodd" fill="#FFFFFF" d="M38.013,56.74
		c1.578-0.834,3.064-1.62,4.663-2.467c0.584,1.933,1.152,3.811,1.72,5.688c-0.052,0.039-0.106,0.08-0.159,0.12
		C41.997,59.362,39.943,58.291,38.013,56.74z"/>
	<path display="inline" fill-rule="evenodd" clip-rule="evenodd" fill="#FFFFFF" d="M49.984,60.867
		c-0.556-0.024-1.223-0.038-1.888-0.09c-0.616-0.047-0.771-0.233-0.796-0.857c-0.059-1.539,0.582-2.325,2.207-2.412
		c0.752-0.041,1.559,0.15,2.275,0.414c0.856,0.315,1.244,1.76,0.75,2.535c-0.108,0.168-0.411,0.27-0.636,0.294
		C51.301,60.82,50.697,60.829,49.984,60.867z"/>
	<path display="inline" fill-rule="evenodd" clip-rule="evenodd" fill="#FFFFFF" d="M57.266,54.337
		c1.497,0.759,2.902,1.471,4.397,2.229c-0.23,0.212-0.343,0.362-0.493,0.446c-1.61,0.912-3.221,1.821-4.843,2.71
		c-0.168,0.093-0.405,0.063-0.609,0.089c0.017-0.206-0.001-0.423,0.057-0.615C56.249,57.618,56.74,56.043,57.266,54.337z"/>
</g>
<g id="Layer_6" display="none">
	<path display="inline" d="M63.98,11.743c-0.154,0.027-0.301,0.064-0.448,0.111h-2.237H7.03c-0.112-0.005-0.224-0.005-0.335,0
		C4.85,12.03,3.441,13.582,3.45,15.435v57.174c0,8.468,4.722,13.671,9.175,15.888c4.453,2.217,8.727,2.125,8.727,2.125h54.041h3.244
		c0,0,0.305,0,0.336,0c0.035,0,0.076,0,0.112,0c0.626,0,4.21-0.09,8.279-2.125c4.252-2.127,8.691-7.014,9.062-14.769
		c0-0.077,0-0.147,0-0.225c0.004-0.076,0.112-0.146,0.112-0.224c0.015-0.186,0.015-0.374,0-0.559c0.007-0.112,0.007-0.225,0-0.336
		V33.448c0-0.037,0-0.075,0-0.111c0,0-0.015-2.514-1.343-5.147c-1.206-2.392-4.104-5.013-8.166-5.482
		c-0.393-0.146-0.813-0.222-1.231-0.224H67.896v-6.378c0.021-0.224,0.021-0.446,0-0.671c0.008-0.148,0.008-0.299,0-0.447
		c0-0.076,0-0.149,0-0.224c0-0.037,0-0.075,0-0.112c-0.034-0.075-0.069-0.15-0.111-0.223c0-0.037,0-0.075,0-0.112
		c-0.032-0.114-0.07-0.226-0.112-0.336c-0.07-0.116-0.143-0.227-0.224-0.335c-0.093-0.196-0.205-0.383-0.336-0.559
		c-0.108-0.081-0.22-0.156-0.335-0.224c-0.137-0.163-0.287-0.311-0.448-0.447c-0.035,0-0.076,0-0.112,0
		c-0.37-0.262-0.789-0.454-1.23-0.561C64.659,11.771,64.319,11.732,63.98,11.743z M10.611,19.015h50.125v6.266
		c-0.098,0.479-0.098,0.976,0,1.455v45.873c0,4.584,1.454,8.147,3.469,10.854H21.352c0,0-1.626,0.005-3.581-0.561
		c-0.652-0.188-1.338-0.447-2.014-0.782c-2.708-1.348-5.146-3.385-5.146-9.511V19.015z M17.771,26.175
		c-1.972,0-3.58,1.609-3.58,3.581v7.161c0,1.972,1.608,3.58,3.58,3.58h35.803c1.972,0,3.581-1.607,3.581-3.58v-7.161
		c0-1.972-1.609-3.581-3.581-3.581H17.771z M67.896,29.644h7.832c-0.668,1.961-0.671,3.581-0.671,3.581c0,0.036,0,0.075,0,0.112
		V69.14c-0.027,1.979,1.553,3.602,3.531,3.63c1.975,0.027,3.602-1.553,3.63-3.529c0-0.03,0-0.065,0-0.101V33.448v-0.111
		c0.007-0.102,0.091-0.984,0.56-1.902c0.496-0.969,0.748-1.679,3.021-1.679c2.259,0,2.518,0.68,3.021,1.679
		c0.479,0.947,0.553,1.913,0.559,2.014c0,0.005,0,0.112,0,0.112v39.16c-0.006,0.111-0.006,0.223,0,0.335
		c-0.097,5.684-2.476,7.615-5.146,8.951c-2.728,1.364-5.595,1.455-5.595,1.455s-2.867-0.077-5.595-1.455
		c-2.727-1.379-5.146-3.406-5.146-9.398V29.644z M16.765,47.657c-1.978,0.28-3.355,2.105-3.077,4.085
		c0.278,1.979,2.106,3.355,4.084,3.076h10.74c1.979,0.027,3.604-1.552,3.632-3.531c0.027-1.976-1.553-3.602-3.53-3.63
		c-0.032,0-0.067,0-0.102,0h-10.74c-0.112-0.005-0.224-0.005-0.335,0c-0.112-0.005-0.224-0.005-0.336,0
		C16.988,47.652,16.876,47.652,16.765,47.657z M38.247,47.657c-1.979,0.28-3.355,2.105-3.077,4.085
		c0.278,1.979,2.105,3.355,4.084,3.076h14.321c1.979,0.027,3.602-1.552,3.629-3.531c0.029-1.976-1.552-3.602-3.527-3.63
		c-0.031,0-0.066,0-0.102,0H39.253c-0.112-0.005-0.224-0.005-0.335,0c-0.112-0.005-0.224-0.005-0.336,0
		C38.47,47.652,38.358,47.652,38.247,47.657z M16.765,58.398c-1.978,0.279-3.355,2.105-3.077,4.084
		c0.278,1.979,2.106,3.356,4.084,3.077h10.74c1.979,0.027,3.604-1.552,3.632-3.531c0.027-1.976-1.553-3.602-3.53-3.63
		c-0.032,0-0.067,0-0.102,0h-10.74c-0.112-0.007-0.224-0.007-0.335,0c-0.112-0.007-0.224-0.007-0.336,0
		C16.988,58.392,16.876,58.392,16.765,58.398z M38.247,58.398c-1.979,0.279-3.355,2.105-3.077,4.084
		c0.278,1.979,2.105,3.356,4.084,3.077h14.321c1.979,0.027,3.602-1.552,3.629-3.531c0.029-1.976-1.552-3.602-3.527-3.63
		c-0.031,0-0.066,0-0.102,0H39.253c-0.112-0.007-0.224-0.007-0.335,0c-0.112-0.007-0.224-0.007-0.336,0
		C38.47,58.392,38.358,58.392,38.247,58.398z M18.555,69.14c-1.977,0.279-3.354,2.105-3.076,4.084
		c0.277,1.979,2.105,3.356,4.083,3.077h8.95c1.979,0.027,3.604-1.553,3.632-3.531c0.027-1.977-1.553-3.602-3.53-3.63
		c-0.032,0-0.067,0-0.102,0h-8.95c-0.112-0.007-0.224-0.007-0.336,0c-0.112-0.007-0.224-0.007-0.336,0
		C18.779,69.133,18.667,69.133,18.555,69.14z M38.247,69.14c-1.979,0.279-3.355,2.105-3.077,4.084
		c0.278,1.979,2.105,3.356,4.084,3.077h14.321c1.979,0.027,3.602-1.553,3.629-3.531c0.029-1.977-1.552-3.602-3.527-3.63
		c-0.031,0-0.066,0-0.102,0H39.253c-0.112-0.007-0.224-0.007-0.335,0c-0.112-0.007-0.224-0.007-0.336,0
		C38.47,69.133,38.358,69.133,38.247,69.14z"/>
</g>
<g id="Layer_8">
	<path fill="#FFFFFF" d="M68.233,20.04c0,4.915-3.986,8.9-8.904,8.9c-4.916,0-8.9-3.986-8.9-8.9c0-4.919,3.984-8.905,8.9-8.905
		C64.247,11.135,68.233,15.12,68.233,20.04L68.233,20.04z M68.233,20.04"/>
	<path fill="#FFFFFF" d="M65.253,31.108c-0.148-0.093-0.308-0.159-0.46-0.223c-0.993-0.663-2.109-1.153-3.243-1.431l-2.221,2.236
		l-2.15-2.261c-0.007,0.004-0.015,0.004-0.021,0.007c-1.157,0.274-2.291,0.771-3.3,1.445c-0.56,0.237-1.067,0.612-1.449,1.143
		c-0.056,0.078-0.107,0.152-0.163,0.226c-0.53,0.57-0.979,1.212-1.32,1.912c-0.14,0.208-0.278,0.416-0.407,0.612
		c-3.092,4.648-4.371,6.572-16.752,6.309c-1.916-0.066-3.487,1.472-3.528,3.381c-0.041,1.909,1.475,3.489,3.384,3.525
		c0.663,0.015,1.301,0.022,1.917,0.022c7.396,0,11.68-0.998,14.679-2.839v11.673c0,0.931,0.182,1.798,0.497,2.595
		c-0.022,0.179-0.041,0.36-0.041,0.549l0.004,33.096c0,2.254,1.827,4.085,4.085,4.085c2.254,0,4.084-1.831,4.084-4.085
		l-0.003-28.406c0.163,0.011,0.322,0.022,0.485,0.022c0.033,0,0.063-0.004,0.097-0.004v28.388c0,2.254,1.827,4.085,4.081,4.085
		c2.258,0,4.085-1.831,4.085-4.085l0.004-32.896c0.534-0.989,0.845-2.113,0.845-3.344V45.74c0.805,2.925,1.131,6.829,0.712,12.208
		c-0.148,1.901,1.271,3.565,3.177,3.718c0.089,0.007,0.182,0.007,0.271,0.007c1.787,0,3.304-1.375,3.444-3.184
		C77.404,41.077,71.662,35.037,65.253,31.108L65.253,31.108z M59.311,49.309l-2.146-2.938l2.146-14.35h0.041l2.146,14.35
		l-2.146,2.938H59.311z M59.311,49.309"/>
	<path fill="#FFFFFF" d="M44.449,38.982h-0.585v-2.225h-2.11v-8.626h-1.705v-3.15h-0.952v-8.752h-1.12V4.5h-5.723v11.729h-1.12
		v8.752h-0.953v3.15h-1.705v8.626h-2.109v2.225h-0.612v0.952h18.694V38.982z M30.863,36.305h-1.798v-1.797h1.798V36.305z
		 M30.863,33.555h-1.798v-1.798h1.798V33.555z M30.863,30.733h-1.798v-1.797h1.798V30.733z M38.508,17.063v1.794h-1.799v-1.794
		H38.508z M38.508,19.846v1.798h-1.799v-1.798H38.508z M35.408,5.331h1.793v1.797h-1.793V5.331z M35.408,8.225h1.793v1.798h-1.793
		V8.225z M35.408,11.305h1.793V13.1h-1.793V11.305z M35.408,14.237h1.793v1.798h-1.793V14.237z M34.214,21.644v-1.798h1.798v1.798
		H34.214z M36.013,22.667v1.798h-1.798v-1.798H36.013z M34.214,18.857v-1.794h1.798v1.794H34.214z M32.902,5.331H34.7v1.797h-1.798
		V5.331z M32.902,8.225H34.7v1.798h-1.798V8.225z M32.902,11.305H34.7V13.1h-1.798V11.305z M32.902,14.237H34.7v1.798h-1.798V14.237
		z M31.712,17.063h1.794v1.794h-1.794V17.063z M31.712,19.846h1.794v1.798h-1.794V19.846z M31.712,22.667h1.794v1.798h-1.794V22.667
		z M33.366,38.982h-1.795v-4.474h1.795V38.982z M33.366,33.555h-1.795v-1.798h1.795V33.555z M33.366,30.733h-1.795v-1.797h1.795
		V30.733z M33.514,27.286h-1.798v-1.793h1.798V27.286z M36.005,38.982h-1.794v-4.474h1.794V38.982z M36.005,33.555h-1.794v-1.798
		h1.794V33.555z M36.005,30.733h-1.794v-1.797h1.794V30.733z M36.02,27.286h-1.798v-1.793h1.798V27.286z M36.709,22.667h1.795v1.798
		h-1.795V22.667z M36.717,25.493h1.793v1.793h-1.793V25.493z M38.559,38.982h-1.794v-4.474h1.794V38.982z M38.559,33.555h-1.794
		v-1.798h1.794V33.555z M38.559,30.733h-1.794v-1.797h1.794V30.733z M41.054,36.305h-1.797v-1.797h1.797V36.305z M41.054,33.555
		h-1.797v-1.798h1.797V33.555z M41.054,30.733h-1.797v-1.797h1.797V30.733z M41.054,30.733"/>
</g>
<g id="Layer_7" display="none">
	<path display="inline" fill="#FFFFFF" d="M95.992,14.695c-0.18-0.455-0.593-0.774-1.078-0.834c-0.482-0.058-0.963,0.152-1.245,0.55
		c-1.685,2.359-3.893,3.146-6.452,4.057c-2.063,0.735-4.197,1.495-6.502,3.15c-3.261,2.342-4.754,5.533-4.01,8.559l-0.08,0.102
		c-1.36-1.977-2.843-3.803-4.406-5.435c-7.315-7.633-17.539-12.223-28.047-12.59c-0.462-0.016-0.933-0.024-1.398-0.024
		c-11.735,0-22.966,5.245-30.814,14.392C4.151,35.719,0.691,47.563,2.465,59.114c0.148,0.968,0.333,1.942,0.551,2.903
		c2.886,12.7,10.257,22.363,20.222,26.506c2.457,1.023,4.935,1.54,7.364,1.54c6.036,0,11.309-3.229,14.465-8.856
		c1.199-2.143,1.973-4.357,2.301-6.584c0.19-1.314,0.06-2.628-0.066-3.899c-0.131-1.313-0.256-2.549-0.057-3.796
		c0.453-2.857,2.449-4.563,5.339-4.563c0.821,0,1.661,0.136,2.499,0.402c-0.981,1.801-1.872,3.521-2.651,5.114
		c-1.652,3.377-2.791,6.175-3.387,8.313c-0.367,1.319-1.346,4.824,1.036,6.477c0.757,0.524,1.714,0.709,2.713,0.524
		c0.899-0.168,3.634-0.675,11.408-9.524c2.086-2.375,4.335-5.124,6.684-8.171c6.033-2.032,10.729-7.088,11.969-12.898
		c0.312-1.451,0.441-3.006,0.386-4.62c2.258-3.491,4.24-6.749,6.233-10.25c0.038-0.067,0.077-0.14,0.113-0.213
		c2.894-0.792,5.386-3.043,6.849-6.193C98.571,26.729,98.414,20.823,95.992,14.695L95.992,14.695z M63.38,36.456
		c-1.047,1.662-2.846,2.654-4.813,2.654c-1.068,0-2.113-0.302-3.021-0.874c-1.283-0.809-2.177-2.069-2.513-3.548
		s-0.077-3.002,0.732-4.286c1.047-1.662,2.846-2.654,4.813-2.654c1.069,0,2.114,0.302,3.022,0.875
		c1.283,0.808,2.175,2.068,2.512,3.548C64.448,33.65,64.188,35.172,63.38,36.456L63.38,36.456z M70.753,46.748
		c2.872-4.231,5.909-8.437,8.795-12.178c0.468,0.422,0.989,0.834,1.556,1.227c0.939,0.652,1.921,1.155,2.924,1.5
		c-2.436,4.165-5.055,8.291-8.226,12.963c-5.209,7.676-10.627,14.806-15.254,20.077c-2.583,2.944-4.845,5.218-6.587,6.627
		c0.672-2.154,1.957-5.106,3.746-8.604C60.906,62.104,65.54,54.428,70.753,46.748L70.753,46.748z M20.329,46.712
		c-1.067,0-2.113-0.302-3.021-0.875c-1.283-0.808-2.176-2.068-2.512-3.548c-0.336-1.479-0.076-3.001,0.732-4.286
		c1.047-1.662,2.846-2.654,4.813-2.654c1.069,0,2.114,0.302,3.021,0.875c2.651,1.67,3.449,5.184,1.78,7.833
		C24.096,45.72,22.296,46.712,20.329,46.712L20.329,46.712z M14.375,59.221c1.046-1.662,2.845-2.654,4.813-2.654
		c1.068,0,2.112,0.303,3.021,0.875c1.283,0.809,2.176,2.068,2.513,3.549c0.336,1.479,0.076,3-0.734,4.283
		c-1.045,1.663-2.845,2.655-4.812,2.655c-1.068,0-2.114-0.303-3.022-0.873c-1.284-0.811-2.176-2.069-2.512-3.549
		C13.307,62.027,13.567,60.504,14.375,59.221L14.375,59.221z M32.568,25.482c1.046-1.662,2.845-2.654,4.812-2.654
		c1.067,0,2.113,0.301,3.021,0.874c2.651,1.669,3.449,5.184,1.781,7.833c-1.047,1.663-2.846,2.655-4.812,2.655
		c-1.07,0-2.114-0.303-3.023-0.875c-1.283-0.808-2.175-2.068-2.512-3.548S31.759,26.767,32.568,25.482L32.568,25.482z
		 M32.568,25.482"/>
</g>
</svg>
