<?xml version="1.0" encoding="utf-8"?>
<!-- Generator: Adobe Illustrator 16.0.0, SVG Export Plug-In . SVG Version: 6.00 Build 0)  -->
<!DOCTYPE svg PUBLIC "-//W3C//DTD SVG 1.1//EN" "http://www.w3.org/Graphics/SVG/1.1/DTD/svg11.dtd">
<svg version="1.1" id="Layer_1" xmlns="http://www.w3.org/2000/svg" xmlns:xlink="http://www.w3.org/1999/xlink" x="0px" y="0px"
	 width="100px" height="100px" viewBox="0 0 100 100" enable-background="new 0 0 100 100" xml:space="preserve">
<g>
	<path fill-rule="evenodd" clip-rule="evenodd" fill="#FFFFFF" d="M39,59.874c1.168,3.827,2.228,7.577,3.458,11.268
		c1.463,4.385,3.635,8.426,6.359,12.164c0.974,1.336,1.308,1.336,2.289-0.008c4.901-6.699,7.546-14.343,9.334-22.341
		c0.045-0.191,0.078-0.385,0.124-0.575c0.038-0.158,0.085-0.313,0.129-0.47c6.585,1.193,16.251,5.995,18.626,15.404
		c0.46,1.815,0.439,3.755,0.641,5.636c0.071,0.656-0.287,0.979-0.836,1.269c-3.705,1.938-7.673,3.034-11.762,3.735
		c-8.398,1.435-16.861,1.435-25.333,1.024c-6.017-0.289-11.953-1.076-17.646-3.175c-0.982-0.363-1.905-0.896-2.898-1.219
		c-1.453-0.469-1.66-1.509-1.601-2.826c0.269-5.899,2.754-10.658,7.329-14.341C30.729,62.589,34.771,60.862,39,59.874z"/>
	<path fill-rule="evenodd" clip-rule="evenodd" fill="#FFFFFF" d="M36.943,41.876c0.044-4.243,0.943-8.433,3.74-11.999
		c2.34-2.986,5.371-4.863,9.273-4.781c4.53,0.095,7.914,2.304,10.293,6.093c4.198,6.687,3.455,18.152-1.55,24.278
		c-5.3,6.484-14.086,5.79-18.575-1.477C37.87,50.342,36.966,46.321,36.943,41.876z"/>
	<path fill-rule="evenodd" clip-rule="evenodd" fill="#FFFFFF" d="M43.819,24.2c-3.709,2.048-6.271,5.023-7.677,8.95
		c-2.024,5.652-2.149,11.354-0.327,17.084c0.04,0.125,0.082,0.249,0.108,0.379c0.012,0.06-0.014,0.126-0.034,0.293
		c-2.043,0.74-4.127,0.64-6.207,0.038c-2.776-0.808-4.95-2.517-6.4-4.948c-4.577-7.673-4.979-15.581-0.592-23.439
		c2.027-3.633,5.346-5.779,9.619-5.955C37.199,16.399,41.807,19.497,43.819,24.2z"/>
	<path fill-rule="evenodd" clip-rule="evenodd" fill="#FFFFFF" d="M64.093,50.929c0.409-2.315,0.987-4.487,1.149-6.691
		c0.469-6.4-0.652-12.393-5.31-17.216c-1.082-1.118-2.439-1.968-3.736-2.995c1.981-3.91,4.985-6.812,9.564-7.343
		c4.958-0.576,8.814,1.623,11.507,5.744c2.486,3.803,3.122,8.094,2.851,12.548c-0.282,4.63-1.555,8.933-4.654,12.495
		c-2.945,3.382-6.672,4.608-11.084,3.58C64.259,51.024,64.148,50.953,64.093,50.929z"/>
	<path fill-rule="evenodd" clip-rule="evenodd" fill="#FFFFFF" d="M21.777,51.371c1.237,3.994,2.42,7.869,3.654,11.729
		c0.191,0.601-0.114,0.823-0.466,1.13c-3.709,3.233-6.141,7.218-7.072,12.077c-0.08,0.418-0.14,0.837-0.218,1.256
		c-0.011,0.056-0.075,0.103-0.173,0.231c-4.908-0.698-9.743-1.788-14.151-4.27c-0.361-0.203-0.617-0.904-0.623-1.379
		c-0.083-5.163,1.64-9.65,5.248-13.364C11.827,54.82,16.63,52.625,21.777,51.371z"/>
	<path fill-rule="evenodd" clip-rule="evenodd" fill="#FFFFFF" d="M82.315,77.814c-0.176-0.871-0.3-1.646-0.489-2.404
		c-1.099-4.429-3.371-8.158-6.787-11.178c-0.518-0.455-0.629-0.816-0.409-1.501c1.196-3.735,2.319-7.495,3.548-11.512
		c2.107,0.792,4.462,1.497,6.654,2.541c5.242,2.5,9.34,6.188,11.35,11.822c0.768,2.149,1.074,4.385,1.043,6.671
		c-0.011,0.738-0.298,1.172-0.976,1.521C91.902,76.01,87.238,77.107,82.315,77.814z"/>
</g>
</svg>
