<?xml version="1.0" encoding="utf-8"?>
<!-- Generator: Adobe Illustrator 16.0.0, SVG Export Plug-In . SVG Version: 6.00 Build 0)  -->
<!DOCTYPE svg PUBLIC "-//W3C//DTD SVG 1.1//EN" "http://www.w3.org/Graphics/SVG/1.1/DTD/svg11.dtd">
<svg version="1.1" id="Layer_1" xmlns="http://www.w3.org/2000/svg" xmlns:xlink="http://www.w3.org/1999/xlink" x="0px" y="0px"
	 width="100px" height="100px" viewBox="0 0 100 100" enable-background="new 0 0 100 100" xml:space="preserve">
<g id="Layer_1_1_" display="none">
	<g display="inline">
		<path fill="#FFFFFF" d="M39,59.874c1.168,3.827,2.228,7.577,3.458,11.269c1.463,4.385,3.635,8.426,6.359,12.164
			c0.974,1.336,1.308,1.336,2.289-0.009c4.901-6.698,7.547-14.343,9.334-22.341c0.045-0.191,0.078-0.385,0.125-0.575
			c0.037-0.157,0.084-0.313,0.129-0.47c6.584,1.193,16.25,5.995,18.625,15.404c0.461,1.814,0.439,3.754,0.642,5.636
			c0.071,0.655-0.287,0.979-0.836,1.269c-3.705,1.938-7.673,3.034-11.763,3.735c-8.397,1.435-16.86,1.435-25.333,1.024
			c-6.017-0.289-11.953-1.076-17.646-3.176c-0.982-0.363-1.905-0.896-2.898-1.219c-1.453-0.469-1.66-1.509-1.601-2.826
			c0.269-5.898,2.754-10.658,7.329-14.341C30.729,62.589,34.771,60.861,39,59.874z"/>
		<path fill="#FFFFFF" d="M36.943,41.876c0.044-4.243,0.943-8.433,3.74-11.999c2.34-2.986,5.371-4.863,9.273-4.781
			c4.53,0.095,7.914,2.304,10.293,6.093c4.198,6.687,3.455,18.152-1.55,24.278c-5.301,6.484-14.086,5.79-18.575-1.477
			C37.87,50.342,36.966,46.321,36.943,41.876z"/>
		<path fill="#FFFFFF" d="M43.819,24.2c-3.709,2.048-6.271,5.023-7.677,8.95c-2.024,5.652-2.149,11.354-0.327,17.084
			c0.04,0.125,0.082,0.249,0.108,0.379c0.012,0.06-0.014,0.126-0.034,0.293c-2.043,0.74-4.127,0.64-6.207,0.037
			c-2.776-0.808-4.95-2.517-6.4-4.947c-4.577-7.673-4.979-15.581-0.592-23.439c2.027-3.633,5.346-5.779,9.619-5.955
			C37.199,16.399,41.807,19.497,43.819,24.2z"/>
		<path fill="#FFFFFF" d="M64.093,50.93c0.409-2.315,0.987-4.488,1.149-6.692c0.469-6.4-0.652-12.393-5.311-17.216
			c-1.082-1.118-2.438-1.968-3.736-2.995c1.981-3.91,4.986-6.812,9.564-7.343c4.958-0.576,8.814,1.623,11.508,5.744
			c2.485,3.803,3.121,8.094,2.851,12.548c-0.282,4.63-1.556,8.933-4.654,12.495c-2.944,3.382-6.672,4.608-11.084,3.58
			C64.259,51.023,64.148,50.953,64.093,50.93z"/>
		<path fill="#FFFFFF" d="M21.777,51.371c1.237,3.994,2.42,7.869,3.654,11.729c0.191,0.602-0.114,0.823-0.466,1.131
			c-3.709,3.232-6.141,7.218-7.072,12.076c-0.08,0.418-0.14,0.838-0.218,1.256c-0.011,0.057-0.075,0.104-0.173,0.231
			c-4.908-0.698-9.743-1.788-14.151-4.271C2.99,73.32,2.734,72.62,2.728,72.145c-0.083-5.162,1.64-9.649,5.248-13.363
			C11.827,54.82,16.63,52.625,21.777,51.371z"/>
		<path fill="#FFFFFF" d="M82.314,77.814c-0.176-0.871-0.299-1.646-0.488-2.404c-1.1-4.43-3.371-8.158-6.787-11.178
			c-0.518-0.455-0.629-0.816-0.409-1.502c1.196-3.734,2.319-7.494,3.548-11.512c2.107,0.792,4.463,1.497,6.654,2.541
			c5.242,2.5,9.34,6.188,11.35,11.822c0.769,2.148,1.074,4.385,1.043,6.671c-0.011,0.738-0.298,1.172-0.976,1.521
			C91.902,76.01,87.238,77.107,82.314,77.814z"/>
	</g>
</g>
<g id="Layer_2" display="none">
	<g display="inline">
		<path fill="#FFFFFF" d="M33.126,56.434c1.804,5.91,3.442,11.702,5.344,17.406c2.259,6.771,5.615,13.014,9.824,18.79
			c1.504,2.063,2.018,2.062,3.535-0.009c7.575-10.352,11.657-22.159,14.422-34.52c0.065-0.295,0.12-0.595,0.19-0.89
			c0.059-0.243,0.133-0.483,0.199-0.722c10.174,1.844,25.104,9.26,28.776,23.795c0.709,2.808,0.677,5.802,0.987,8.71
			c0.109,1.012-0.442,1.51-1.295,1.955c-5.719,2.998-11.849,4.692-18.168,5.772c-12.975,2.217-26.047,2.217-39.136,1.584
			c-9.295-0.449-18.466-1.66-27.261-4.908c-1.518-0.56-2.943-1.383-4.478-1.879c-2.244-0.726-2.565-2.336-2.473-4.367
			C4.01,78.04,7.85,70.689,14.917,64.998C20.349,60.625,26.59,57.956,33.126,56.434z"/>
		<path fill="#FFFFFF" d="M29.949,28.624c0.068-6.551,1.457-13.026,5.776-18.536c3.617-4.613,8.297-7.513,14.328-7.386
			c6.995,0.147,12.224,3.561,15.9,9.414c6.484,10.33,5.339,28.042-2.395,37.506c-8.186,10.019-21.76,8.946-28.696-2.28
			C31.38,41.702,29.983,35.494,29.949,28.624z"/>
	</g>
</g>
<g id="Layer_3" display="none">
	<g display="inline">
		<path fill="#FFFFFF" d="M65.617,78.107c0-6.844,3.773-12.756,9.301-15.969c-3.457-1.105-7.193-1.982-11.107-2.597
			c8.424-4.668,14.127-13.635,14.127-23.936c0-15.129-12.267-27.375-27.375-27.375c-15.126,0-27.375,12.246-27.375,27.375
			c0,10.3,5.703,19.268,14.108,23.936c-20.67,3.229-35.85,13.792-35.85,26.34h65.946C66.284,83.514,65.617,80.898,65.617,78.107
			L65.617,78.107z"/>
		<path fill="#FFFFFF" d="M84.113,63.666c-7.967,0-14.426,6.458-14.426,14.441c0,7.969,6.459,14.426,14.426,14.426
			s14.441-6.457,14.441-14.426C98.555,70.124,92.08,63.666,84.113,63.666L84.113,63.666z M93.537,80.671h-6.862v6.86h-5.123v-6.86
			h-6.862v-5.144h6.862v-6.859h5.123v6.859h6.862V80.671z"/>
	</g>
</g>
<g>
	<g>
		<defs>
			<rect id="SVGID_1_" x="14.359" y="5.229" width="70.184" height="94.771"/>
		</defs>
		<clipPath id="SVGID_2_">
			<use xlink:href="#SVGID_1_"  overflow="visible"/>
		</clipPath>
		<path clip-path="url(#SVGID_2_)" fill="#FFFFFF" d="M28.141,68.787l2.359-2.359H47.74l-11-19.871l-8.133,1.646
			c-2.137,0.433-3.839,2.042-4.4,4.146L14.549,83.87c-0.455,1.712-0.085,3.543,0.994,4.948c1.09,1.408,2.761,2.232,4.537,2.232h8.06
			V68.787z"/>
	</g>
	<path fill="#FFFFFF" d="M83.957,83.87L74.299,52.35c-0.561-2.125-2.295-3.742-4.463-4.156l-8.113-1.532L50.764,66.428h18.553
		l2.35,2.359v22.265h6.769c1.767,0,3.448-0.825,4.526-2.231C84.041,87.413,84.411,85.582,83.957,83.87L83.957,83.87z"/>
	<path fill="#FFFFFF" d="M32.858,91.052h-0.656v0.011h34.101v-0.011h0.656V71.145H32.858V91.052z"/>
	<g>
		<defs>
			<rect id="SVGID_3_" x="14.359" y="5.229" width="70.184" height="94.771"/>
		</defs>
		<clipPath id="SVGID_4_">
			<use xlink:href="#SVGID_3_"  overflow="visible"/>
		</clipPath>
		<rect x="23.444" y="93.199" clip-path="url(#SVGID_4_)" fill="#FFFFFF" width="51.625" height="4.262"/>
	</g>
	<rect x="14.359" y="5.229" fill="none" width="70.184" height="94.771"/>
	<path fill="#FFFFFF" d="M30.869,32.645c0.096,0.182,0.211,0.466,0.338,0.76c0.497,1.208,0.91,2.107,1.471,2.635
		c2.623,8.546,9.381,14.471,16.563,14.438c7.15-0.021,13.824-5.987,16.353-14.555c0.552-0.538,0.94-1.427,1.429-2.623
		c0.127-0.307,0.243-0.591,0.328-0.783c0.973-2,0.634-4.167-0.72-5.224v-0.203C66.6,16.493,65.213,5.177,49.084,5.229
		C32.837,5.283,31.516,16.125,31.547,27.208c0,0.075,0,0.138,0,0.202C30.213,28.478,29.896,30.647,30.869,32.645L30.869,32.645z
		 M33.145,29.227l0.042-0.018c0.274-0.099,0.486-0.288,0.613-0.52l2.824,0.434c0.264,0.031,0.528-0.106,0.634-0.359l1.777-4.105
		c2.021,0.488,9.636,2.199,15.611,2.181c1.849,0,3.386-0.181,4.569-0.53l1.133,2.718c0.095,0.233,0.316,0.382,0.55,0.372
		c0.053,0,0.106,0,0.159-0.022l3.277-0.92c0.127,0.298,0.371,0.53,0.678,0.646l0.054,0.008c0.485,0.245,0.646,1.314,0.125,2.37
		c-0.115,0.255-0.253,0.571-0.39,0.921c-0.201,0.499-0.604,1.502-0.857,1.778c-0.275,0.147-0.477,0.413-0.561,0.718
		c-2.138,7.744-7.965,13.167-14.164,13.19C43,48.109,37.087,42.727,34.855,34.993c-0.095-0.306-0.297-0.561-0.571-0.717
		c-0.243-0.266-0.676-1.281-0.878-1.78c-0.137-0.338-0.274-0.654-0.401-0.907C32.5,30.53,32.657,29.472,33.145,29.227L33.145,29.227
		z"/>
</g>
</svg>
