<?xml version="1.0" encoding="utf-8"?>
<!-- Generator: Adobe Illustrator 16.0.0, SVG Export Plug-In . SVG Version: 6.00 Build 0)  -->
<!DOCTYPE svg PUBLIC "-//W3C//DTD SVG 1.1//EN" "http://www.w3.org/Graphics/SVG/1.1/DTD/svg11.dtd">
<svg version="1.1" xmlns="http://www.w3.org/2000/svg" xmlns:xlink="http://www.w3.org/1999/xlink" x="0px" y="0px" width="100px"
	 height="100px" viewBox="0 0 100 100" enable-background="new 0 0 100 100" xml:space="preserve">
<g id="Layer_1" display="none">
	<g display="inline">
		<path fill-rule="evenodd" clip-rule="evenodd" fill="#FFFFFF" d="M39,59.874c1.168,3.827,2.228,7.577,3.458,11.268
			c1.463,4.385,3.635,8.426,6.359,12.164c0.974,1.336,1.308,1.336,2.289-0.008c4.901-6.699,7.546-14.343,9.334-22.341
			c0.045-0.191,0.078-0.385,0.124-0.575c0.038-0.158,0.085-0.313,0.129-0.47c6.585,1.193,16.251,5.995,18.626,15.404
			c0.46,1.815,0.439,3.755,0.641,5.636c0.071,0.656-0.287,0.979-0.836,1.269c-3.705,1.938-7.673,3.034-11.762,3.735
			c-8.398,1.435-16.861,1.435-25.333,1.024c-6.017-0.289-11.953-1.076-17.646-3.175c-0.982-0.363-1.905-0.896-2.898-1.219
			c-1.453-0.469-1.66-1.509-1.601-2.826c0.269-5.899,2.754-10.658,7.329-14.341C30.729,62.589,34.771,60.862,39,59.874z"/>
		<path fill-rule="evenodd" clip-rule="evenodd" fill="#FFFFFF" d="M36.943,41.876c0.044-4.243,0.943-8.433,3.74-11.999
			c2.34-2.986,5.371-4.863,9.273-4.781c4.53,0.095,7.914,2.304,10.293,6.093c4.198,6.687,3.455,18.152-1.55,24.278
			c-5.3,6.484-14.086,5.79-18.575-1.477C37.87,50.342,36.966,46.321,36.943,41.876z"/>
		<path fill-rule="evenodd" clip-rule="evenodd" fill="#FFFFFF" d="M43.819,24.2c-3.709,2.048-6.271,5.023-7.677,8.95
			c-2.024,5.652-2.149,11.354-0.327,17.084c0.04,0.125,0.082,0.249,0.108,0.379c0.012,0.06-0.014,0.126-0.034,0.293
			c-2.043,0.74-4.127,0.64-6.207,0.038c-2.776-0.808-4.95-2.517-6.4-4.948c-4.577-7.673-4.979-15.581-0.592-23.439
			c2.027-3.633,5.346-5.779,9.619-5.955C37.199,16.399,41.807,19.497,43.819,24.2z"/>
		<path fill-rule="evenodd" clip-rule="evenodd" fill="#FFFFFF" d="M64.093,50.929c0.409-2.315,0.987-4.487,1.149-6.691
			c0.469-6.4-0.652-12.393-5.31-17.216c-1.082-1.118-2.439-1.968-3.736-2.995c1.981-3.91,4.985-6.812,9.564-7.343
			c4.958-0.576,8.814,1.623,11.507,5.744c2.486,3.803,3.122,8.094,2.851,12.548c-0.282,4.63-1.555,8.933-4.654,12.495
			c-2.945,3.382-6.672,4.608-11.084,3.58C64.259,51.024,64.148,50.953,64.093,50.929z"/>
		<path fill-rule="evenodd" clip-rule="evenodd" fill="#FFFFFF" d="M21.777,51.371c1.237,3.994,2.42,7.869,3.654,11.729
			c0.191,0.601-0.114,0.823-0.466,1.13c-3.709,3.233-6.141,7.218-7.072,12.077c-0.08,0.418-0.14,0.837-0.218,1.256
			c-0.011,0.056-0.075,0.103-0.173,0.231c-4.908-0.698-9.743-1.788-14.151-4.27c-0.361-0.203-0.617-0.904-0.623-1.379
			c-0.083-5.163,1.64-9.65,5.248-13.364C11.827,54.82,16.63,52.625,21.777,51.371z"/>
		<path fill-rule="evenodd" clip-rule="evenodd" fill="#FFFFFF" d="M82.315,77.814c-0.176-0.871-0.3-1.646-0.489-2.404
			c-1.099-4.429-3.371-8.158-6.787-11.178c-0.518-0.455-0.629-0.816-0.409-1.501c1.196-3.735,2.319-7.495,3.548-11.512
			c2.107,0.792,4.462,1.497,6.654,2.541c5.242,2.5,9.34,6.188,11.35,11.822c0.768,2.149,1.074,4.385,1.043,6.671
			c-0.011,0.738-0.298,1.172-0.976,1.521C91.902,76.01,87.238,77.107,82.315,77.814z"/>
	</g>
</g>
<g id="Layer_2" display="none">
	<g display="inline">
		<path fill-rule="evenodd" clip-rule="evenodd" fill="#FFFFFF" d="M33.126,56.433c1.804,5.911,3.442,11.703,5.344,17.407
			c2.259,6.772,5.615,13.013,9.824,18.79c1.504,2.064,2.018,2.062,3.535-0.009c7.575-10.352,11.658-22.159,14.422-34.519
			c0.066-0.295,0.12-0.595,0.191-0.89c0.058-0.243,0.132-0.484,0.199-0.722c10.173,1.844,25.104,9.26,28.776,23.795
			c0.709,2.808,0.677,5.802,0.988,8.71c0.108,1.012-0.443,1.51-1.295,1.955c-5.72,2.998-11.849,4.692-18.169,5.772
			c-12.974,2.218-26.046,2.218-39.136,1.585c-9.295-0.449-18.466-1.661-27.261-4.908c-1.518-0.56-2.943-1.383-4.478-1.879
			c-2.244-0.726-2.565-2.336-2.473-4.368C4.01,78.04,7.85,70.689,14.917,64.998C20.349,60.625,26.59,57.956,33.126,56.433z"/>
		<path fill-rule="evenodd" clip-rule="evenodd" fill="#FFFFFF" d="M29.949,28.624c0.068-6.551,1.457-13.026,5.776-18.536
			c3.617-4.613,8.297-7.513,14.328-7.386c6.995,0.147,12.225,3.561,15.9,9.414c6.485,10.33,5.339,28.042-2.394,37.506
			c-8.186,10.018-21.76,8.947-28.696-2.28C31.38,41.702,29.983,35.494,29.949,28.624z"/>
	</g>
</g>
<g id="Layer_3" display="none">
	<g display="inline">
		<path fill="#FFFFFF" d="M65.617,78.107c0-6.843,3.774-12.756,9.301-15.968c-3.457-1.106-7.194-1.983-11.107-2.597
			c8.423-4.668,14.126-13.635,14.126-23.936c0-15.129-12.266-27.375-27.375-27.375c-15.126,0-27.375,12.246-27.375,27.375
			c0,10.3,5.703,19.268,14.108,23.936c-20.67,3.229-35.85,13.792-35.85,26.34h65.945C66.284,83.513,65.617,80.898,65.617,78.107
			L65.617,78.107z M65.617,78.107"/>
		<path fill="#FFFFFF" d="M84.113,63.666c-7.967,0-14.425,6.458-14.425,14.441c0,7.969,6.458,14.426,14.425,14.426
			s14.441-6.457,14.441-14.426C98.555,70.124,92.08,63.666,84.113,63.666L84.113,63.666z M93.537,80.671h-6.862v6.86h-5.123v-6.86
			h-6.862v-5.143h6.862v-6.86h5.123v6.86h6.862V80.671z M93.537,80.671"/>
	</g>
</g>
<g id="Layer_4" display="none">
	<g display="inline">
		<g>
			<defs>
				<rect id="SVGID_1_" x="15.125" y="5.229" width="70.184" height="94.771"/>
			</defs>
			<use xlink:href="#SVGID_1_"  overflow="visible" fill="#FFFFFF"/>
			<clipPath id="SVGID_2_">
				<use xlink:href="#SVGID_1_"  overflow="visible"/>
			</clipPath>
			<path clip-path="url(#SVGID_2_)" fill="#FFFFFF" d="M28.906,68.787l2.359-2.359h17.241l-11-19.872l-8.133,1.647
				c-2.137,0.433-3.839,2.042-4.4,4.146L15.315,83.87c-0.455,1.712-0.085,3.543,0.994,4.949c1.09,1.407,2.761,2.232,4.537,2.232
				h8.06V68.787z M28.906,68.787"/>
		</g>
		<path fill="#FFFFFF" d="M84.723,83.87L75.064,52.35c-0.56-2.126-2.294-3.743-4.463-4.156l-8.113-1.533L51.53,66.428h18.552
			l2.35,2.359v22.265H79.2c1.767,0,3.449-0.825,4.526-2.232C84.807,87.413,85.177,85.582,84.723,83.87L84.723,83.87z M84.723,83.87"
			/>
		<path fill="#FFFFFF" d="M33.624,91.052h-0.656v0.011h34.101v-0.011h0.655V71.145H33.624V91.052z M33.624,91.052"/>
		<g>
			<defs>
				<rect id="SVGID_3_" x="15.125" y="5.229" width="70.184" height="94.771"/>
			</defs>
			<use xlink:href="#SVGID_3_"  overflow="visible" fill="#FFFFFF"/>
			<clipPath id="SVGID_4_">
				<use xlink:href="#SVGID_3_"  overflow="visible"/>
			</clipPath>
			<rect x="24.21" y="93.199" clip-path="url(#SVGID_4_)" fill="#FFFFFF" width="51.625" height="4.262"/>
			<path clip-path="url(#SVGID_4_)" fill="#FFFFFF" d="M31.635,32.645c0.096,0.182,0.211,0.466,0.338,0.76
				c0.497,1.208,0.91,2.107,1.471,2.635c2.623,8.546,9.381,14.471,16.563,14.438c7.15-0.021,13.824-5.987,16.353-14.554
				c0.551-0.538,0.94-1.427,1.428-2.623c0.127-0.307,0.243-0.591,0.328-0.783c0.973-2,0.634-4.167-0.72-5.224v-0.203
				C67.365,16.493,65.979,5.177,49.85,5.229C33.603,5.283,32.281,16.125,32.313,27.208c0,0.075,0,0.138,0,0.202
				C30.979,28.478,30.662,30.647,31.635,32.645L31.635,32.645z M33.91,29.227l0.042-0.018c0.274-0.099,0.486-0.288,0.613-0.52
				l2.824,0.434c0.264,0.031,0.528-0.106,0.634-0.359l1.777-4.105c2.021,0.488,9.636,2.199,15.611,2.181
				c1.849,0,3.386-0.181,4.57-0.53l1.132,2.718c0.095,0.233,0.316,0.382,0.55,0.372c0.053,0,0.106,0,0.159-0.022l3.278-0.92
				c0.126,0.298,0.37,0.53,0.677,0.646l0.054,0.008c0.486,0.245,0.646,1.314,0.125,2.37c-0.115,0.255-0.253,0.571-0.39,0.921
				c-0.201,0.499-0.604,1.502-0.857,1.778c-0.275,0.147-0.476,0.413-0.561,0.718c-2.137,7.744-7.965,13.167-14.163,13.19
				c-6.219,0.021-12.132-5.362-14.364-13.096c-0.095-0.306-0.297-0.561-0.571-0.717c-0.243-0.266-0.676-1.281-0.878-1.78
				c-0.137-0.338-0.274-0.654-0.401-0.907C33.265,30.53,33.423,29.472,33.91,29.227L33.91,29.227z M33.91,29.227"/>
		</g>
	</g>
</g>
<g id="Layer_5">
	<path fill-rule="evenodd" clip-rule="evenodd" fill="#FFFFFF" d="M86.911,82.937c-0.015-0.007-0.029-0.021-0.044-0.021
		c-1.285,0.01-2.154-0.745-3-1.583c-5.412-5.366-10.836-10.724-16.255-16.082c-0.034-0.035-0.062-0.077-0.118-0.15
		c0.186-0.222,0.37-0.453,0.567-0.674c0.24-0.264,0.291-0.513,0.006-0.777c-0.608-0.57-1.212-1.146-1.859-1.756
		c-0.591,0.428-1.245,0.916-1.911,1.383c-4.856,3.391-10.263,4.774-16.148,4.446c-3.461-0.191-6.793-0.93-9.859-2.562
		c-7.405-3.944-12.113-10-13.646-18.281c-2.555-13.798,6.396-27.018,20.186-29.599c9.174-1.718,17.149,0.906,23.642,7.713
		c3.481,3.648,5.577,8.029,6.423,12.959c0.324,1.908,0.249,3.897,0.229,5.848c-0.05,5.264-2.068,9.835-5.097,14.027
		c-0.216,0.298-0.435,0.594-0.65,0.892c-0.019,0.024-0.021,0.063-0.03,0.094c0.721,0.692,1.442,1.385,2.209,2.122
		c0.246-0.228,0.567-0.526,0.893-0.824c0.069,0.039,0.118,0.055,0.15,0.087c5.598,5.677,11.157,11.394,16.816,17.009
		c1.537,1.524,0.889,4.838-1.431,5.511c-0.318,0.093-0.646,0.146-0.971,0.219C86.978,82.937,86.945,82.937,86.911,82.937z
		 M49.742,20.97c-11.19,0.083-21.132,8.979-21.292,21.047c-0.157,11.903,9.285,21.583,21.215,21.628
		c11.563,0.044,21.095-9.263,21.362-20.886C71.279,31.922,62.803,21.192,49.742,20.97z"/>
	<path fill-rule="evenodd" clip-rule="evenodd" fill="#FFFFFF" d="M0.852,68.394c0.134-1.022,0.229-2.054,0.411-3.067
		c0.351-1.953,1.311-3.454,3.2-4.306c2.539-1.146,5.045-2.36,7.653-3.585c1.229,3.779,2.471,7.6,3.713,11.421
		c0.053-0.001,0.106-0.001,0.159-0.003c0.267-0.727,0.479-1.479,0.815-2.175c0.537-1.108,0.555-2.108-0.19-3.156
		c-0.313-0.438-0.443-1.04-0.553-1.59c-0.161-0.805,0.243-1.523,1.038-1.698c0.684-0.15,1.432-0.203,2.12-0.098
		c1.113,0.17,1.669,1.067,1.326,2.155c-0.257,0.813-0.745,1.555-1.095,2.343c-0.096,0.214-0.152,0.513-0.082,0.723
		c0.391,1.168,0.826,2.32,1.247,3.479c0.063,0.008,0.125,0.014,0.188,0.021c1.22-3.804,2.44-7.607,3.688-11.496
		c0.454,0.235,0.913,0.37,1.226,0.66c0.705,0.657,1.363,1.37,1.984,2.106c0.153,0.182,0.191,0.578,0.111,0.819
		c-0.83,2.486-1.103,5.05-1.12,7.651c-0.007,1.171-0.038,2.34-0.065,3.51c-0.007,0.265-0.054,0.531-0.07,0.798
		c-0.02,0.345-0.165,0.525-0.536,0.472c-0.131-0.018-0.268-0.003-0.401-0.003c-8.039,0-16.079,0-24.117,0.002
		c-0.216,0-0.433,0.021-0.649,0.031C0.852,71.736,0.852,70.064,0.852,68.394z"/>
	<path fill-rule="evenodd" clip-rule="evenodd" fill="#FFFFFF" d="M99.148,73.608c-0.199-0.014-0.396-0.04-0.597-0.04
		c-2.757-0.004-5.514,0.006-8.271-0.018c-0.266-0.001-0.594-0.13-0.778-0.314c-1.584-1.581-3.143-3.189-4.709-4.791
		c-0.191-0.195-0.318-0.376-0.212-0.701c1.081-3.313,2.144-6.634,3.212-9.951c0.035-0.108,0.093-0.21,0.153-0.349
		c1.158,0.56,2.291,1.12,3.435,1.656c1.161,0.547,2.313,1.12,3.507,1.596c2.387,0.95,3.62,2.741,3.956,5.223
		c0.113,0.855,0.202,1.716,0.304,2.574C99.148,70.199,99.148,71.903,99.148,73.608z"/>
	<path fill-rule="evenodd" clip-rule="evenodd" fill="#FFFFFF" d="M90.751,41.517c-0.081,0.759-0.203,1.702-0.267,2.65
		c-0.021,0.323,0.11,0.656,0.18,0.982c0.046,0.227,0.147,0.447,0.159,0.675c0.075,1.433-0.255,2.785-0.93,4.045
		c-0.214,0.399-0.42,0.849-0.993,0.896c-0.09,0.006-0.194,0.211-0.243,0.344c-0.122,0.345-0.224,0.698-0.318,1.052
		c-0.44,1.599-1.313,2.937-2.598,3.959c-2.019,1.604-4.298,1.756-6.675,0.96c-1.165-0.39-2.105-1.134-2.939-2.029
		c-0.339-0.367-0.455-0.741-0.308-1.227c0.399-1.289,0.785-2.584,1.164-3.881c1.248-4.285,1.31-8.622,0.565-12.994
		c-0.104-0.608-0.18-1.222-0.284-1.83c-0.055-0.341,0.055-0.57,0.354-0.748c1.086-0.648,2.209-1.109,3.507-1.219
		c2.542-0.217,4.703,0.504,6.507,2.321c0.327,0.329,0.718,0.603,1.112,0.851c1.109,0.705,1.691,1.733,1.861,3.001
		C90.692,39.983,90.695,40.655,90.751,41.517z"/>
	<path fill-rule="evenodd" clip-rule="evenodd" fill="#FFFFFF" d="M18.781,33.157c1.124,0.012,2.232,0.071,3.264,0.612
		c0.434,0.227,0.541,0.469,0.422,0.954c-1.463,5.987-1.351,11.904,0.846,17.721c0.2,0.531,0.429,1.056,0.566,1.602
		c0.06,0.235,0.007,0.589-0.139,0.774c-3.5,4.454-9.585,2.789-11.397-0.429c-0.61-1.08-1.126-2.187-1.432-3.398
		c-0.111-0.437-0.52-0.792-0.696-1.224c-0.403-0.982-0.804-1.975-1.09-2.994c-0.147-0.525-0.075-1.12-0.042-1.681
		c0.011-0.181,0.181-0.462,0.335-0.508c0.547-0.168,0.484-0.546,0.437-0.958c-0.075-0.661-0.204-1.327-0.184-1.987
		c0.071-2.36,1.066-4.305,2.784-5.9c1.076-1.001,2.275-1.837,3.669-2.289c0.838-0.271,1.754-0.302,2.635-0.44
		C18.768,33.061,18.774,33.108,18.781,33.157z"/>
	<path fill-rule="evenodd" clip-rule="evenodd" fill="#FFFFFF" d="M64.85,66.253c1.77,1.841,3.533,3.667,5.288,5.503
		c0.452,0.472,0.735,1.027,0.651,1.76c-13.833,0-27.675,0-41.609,0c0.022-3.616-0.078-7.251,0.797-10.938
		c4.762,4.498,10.3,7.214,16.772,7.851C53.204,71.063,59.229,69.72,64.85,66.253z"/>
	<path fill-rule="evenodd" clip-rule="evenodd" fill="#FFFFFF" d="M82.903,66.75c-1.046-1.178-2.135-2.322-3.116-3.552
		c-0.307-0.382-0.391-0.987-0.452-1.506c-0.081-0.678,0.794-1.589,1.515-1.604c0.648-0.013,1.303,0.029,1.946,0.113
		c0.651,0.084,1.135,0.631,1.077,1.351c-0.049,0.647-0.272,1.289-0.469,1.916c-0.093,0.295-0.284,0.567-0.461,0.828
		c-0.298,0.438-0.333,0.886-0.15,1.375c0.115,0.311,0.194,0.632,0.289,0.947C83.024,66.662,82.964,66.705,82.903,66.75z"/>
	<path fill-rule="evenodd" clip-rule="evenodd" fill="#FFFFFF" d="M60.828,35.303c-0.11,1.062-0.213,2.175-0.345,3.285
		c-0.057,0.479,0.058,0.893,0.205,1.351c0.194,0.613,0.281,1.311,0.21,1.95c-0.144,1.299-0.549,2.545-1.191,3.691
		c-0.24,0.427-0.472,0.893-1.092,0.916c-0.11,0.004-0.255,0.24-0.307,0.396c-0.24,0.692-0.425,1.406-0.684,2.091
		c-1.092,2.871-3.077,4.762-6.113,5.447c-3.1,0.7-6.668-0.77-8.495-3.47c-0.822-1.215-1.414-2.53-1.738-3.964
		c-0.124-0.548-0.303-1.055-0.778-1.414c-0.128-0.095-0.222-0.252-0.299-0.396c-0.806-1.51-1.268-3.119-1.329-4.831
		c-0.022-0.643,0.164-1.179,0.872-1.411c0.125-0.041,0.276-0.338,0.243-0.474c-0.927-3.7,0.151-6.823,2.753-9.479
		c1.479-1.51,3.187-2.748,5.277-3.222c3.384-0.767,6.419-0.054,8.939,2.452c0.354,0.35,0.724,0.721,1.155,0.949
		c1.575,0.833,2.238,2.232,2.505,3.882C60.733,33.774,60.755,34.512,60.828,35.303z"/>
	<path fill-rule="evenodd" clip-rule="evenodd" fill="#FFFFFF" d="M38.013,56.74c1.578-0.834,3.064-1.62,4.663-2.467
		c0.584,1.933,1.152,3.811,1.72,5.688c-0.052,0.039-0.106,0.08-0.159,0.12C41.997,59.362,39.943,58.291,38.013,56.74z"/>
	<path fill-rule="evenodd" clip-rule="evenodd" fill="#FFFFFF" d="M49.984,60.867c-0.556-0.024-1.223-0.038-1.888-0.09
		c-0.616-0.047-0.771-0.233-0.796-0.857c-0.059-1.539,0.582-2.325,2.207-2.412c0.752-0.041,1.559,0.15,2.275,0.414
		c0.856,0.315,1.244,1.76,0.75,2.535c-0.108,0.168-0.411,0.27-0.636,0.294C51.301,60.82,50.697,60.829,49.984,60.867z"/>
	<path fill-rule="evenodd" clip-rule="evenodd" fill="#FFFFFF" d="M57.266,54.337c1.497,0.759,2.902,1.471,4.397,2.229
		c-0.23,0.212-0.343,0.362-0.493,0.446c-1.61,0.912-3.221,1.821-4.843,2.71c-0.168,0.093-0.405,0.063-0.609,0.089
		c0.017-0.206-0.001-0.423,0.057-0.615C56.249,57.618,56.74,56.043,57.266,54.337z"/>
</g>
</svg>
